<?xml version="1.0" encoding="UTF-8" standalone="no"?>
<!-- Created with Inkscape (http://www.inkscape.org/) -->

<svg
   width="300"
   height="300"
   viewBox="0 0 300 300"
   version="1.1"
   id="svg1"
   xml:space="preserve"
   sodipodi:docname="inkscape_logos.svg"
   inkscape:version="1.3.2 (091e20e, 2023-11-25, custom)"
   inkscape:export-filename="maps_rounded_icon.svg"
   inkscape:export-xdpi="96"
   inkscape:export-ydpi="96"
   xmlns:inkscape="http://www.inkscape.org/namespaces/inkscape"
   xmlns:sodipodi="http://sodipodi.sourceforge.net/DTD/sodipodi-0.dtd"
   xmlns="http://www.w3.org/2000/svg"
   xmlns:svg="http://www.w3.org/2000/svg"><sodipodi:namedview
     id="namedview1"
     pagecolor="#000000"
     bordercolor="#000000"
     borderopacity="0.25"
     inkscape:showpageshadow="2"
     inkscape:pageopacity="0.0"
     inkscape:pagecheckerboard="false"
     inkscape:deskcolor="#d1d1d1"
     inkscape:document-units="px"
     inkscape:zoom="2.71"
     inkscape:cx="150.1845"
     inkscape:cy="150"
     inkscape:window-width="1920"
     inkscape:window-height="1009"
     inkscape:window-x="1912"
     inkscape:window-y="108"
     inkscape:window-maximized="1"
     inkscape:current-layer="svg1"
     inkscape:export-bgcolor="#ffffff00" /><defs
     id="defs1"><inkscape:path-effect
       effect="fillet_chamfer"
       id="path-effect3"
       is_visible="true"
       lpeversion="1"
       nodesatellites_param="F,0,0,1,0,19,0,1 @ F,0,0,1,0,19,0,1 @ F,0,0,1,0,19,0,1 @ F,0,0,1,0,19,0,1"
       radius="20"
       unit="px"
       method="auto"
       mode="F"
       chamfer_steps="1"
       flexible="false"
       use_knot_distance="true"
       apply_no_radius="true"
       apply_with_radius="true"
       only_selected="false"
       hide_knots="false" /><inkscape:path-effect
       effect="fillet_chamfer"
       id="path-effect1"
       is_visible="true"
       lpeversion="1"
       nodesatellites_param="F,0,0,1,0,19,0,1 @ F,0,0,1,0,19,0,1 @ F,0,0,1,0,19,0,1 @ F,0,0,1,0,19,0,1"
       radius="20"
       unit="px"
       method="auto"
       mode="F"
       chamfer_steps="1"
       flexible="false"
       use_knot_distance="true"
       apply_no_radius="true"
       apply_with_radius="true"
       only_selected="false"
       hide_knots="false" /><inkscape:path-effect
       effect="fillet_chamfer"
       id="path-effect4"
       is_visible="true"
       lpeversion="1"
       nodesatellites_param="F,0,0,1,0,20,0,1 @ F,0,0,1,0,20,0,1 @ F,0,0,1,0,20,0,1 @ F,0,0,1,0,20,0,1"
       radius="20"
       unit="px"
       method="auto"
       mode="F"
       chamfer_steps="1"
       flexible="false"
       use_knot_distance="true"
       apply_no_radius="true"
       apply_with_radius="true"
       only_selected="false"
       hide_knots="false" /></defs><g
     inkscape:label="Layer 1"
     inkscape:groupmode="layer"
     id="layer1"
     style="display:inline" /><g
     id="g3"
     style="display:none"
     inkscape:label="Map Icon"><path
       d="M 61.821291,21.590818 A 40.229884,40.229884 0 0 0 21.590823,61.821287 V 238.18066 a 40.229884,40.229884 0 0 0 40.230468,40.22852 H 238.17872 a 40.229884,40.229884 0 0 0 40.23046,-40.22852 V 61.821287 A 40.229884,40.229884 0 0 0 238.17872,21.590818 Z m 90.488289,23.111328 c 0.11405,-0.0067 0.22524,0.01367 0.33593,0.01367 0.0906,0 0.17308,-0.01512 0.26367,-0.01172 25.37512,1.51278 43.23005,13.561413 51.64258,34.847656 20.32021,51.431138 -19.17992,144.230758 -48.28906,174.925788 -0.0436,0.047 -0.0936,0.0741 -0.14062,0.12109 -0.0235,0.0201 -0.0273,0.0502 -0.0508,0.0703 -0.0369,0.0335 -0.0861,0.0446 -0.12304,0.0781 -0.44612,0.39916 -0.93877,0.72032 -1.46875,0.93164 -0.047,0.0168 -0.0936,0.0262 -0.14063,0.043 -0.55681,0.20461 -1.13761,0.32617 -1.72461,0.32617 h -0.004 -0.002 c -0.587,0 -1.1678,-0.12156 -1.72461,-0.32617 -0.047,-0.0168 -0.0936,-0.0262 -0.14062,-0.043 -0.52998,-0.21132 -1.01677,-0.53389 -1.46289,-0.92969 -0.0402,-0.0302 -0.0907,-0.0432 -0.13086,-0.0801 -0.0235,-0.0167 -0.0307,-0.0502 -0.0508,-0.0703 -0.0436,-0.0436 -0.0931,-0.0702 -0.13672,-0.11719 -29.10825,-30.70166 -68.612463,-123.50436 -48.2889,-174.935494 8.40918,-21.282891 26.26833,-33.33432 51.63673,-34.84375 z"
       style="display:inline;fill:#ffffff"
       id="path12" /><path
       d="m 152.58108,70.277529 c -14.66155,0 -26.58594,11.92775 -26.58594,26.58595 0,14.661541 11.92774,26.585931 26.58594,26.585931 14.66154,0 26.58984,-11.92774 26.58984,-26.585931 0,-14.66155 -11.9283,-26.58595 -26.58984,-26.58595 z"
       style="display:inline;fill:#ffffff;stroke-width:3.35428"
       id="path15" /></g><g
     id="g4"
     inkscape:label="Facebook Icon"><path
       style="display:inline;fill:#ffffff;fill-opacity:1;stroke-width:1.04505"
       id="rect15"
       width="256.82657"
       height="256.82657"
       x="21.58672"
       y="21.58672"
       inkscape:path-effect="#path-effect1"
       sodipodi:type="rect"
       d="m 40.58672,21.58672 h 218.82657 a 19,19 45 0 1 19,19 v 218.82657 a 19,19 135 0 1 -19,19 H 40.58672 a 19,19 45 0 1 -19,-19 V 40.58672 a 19,19 135 0 1 19,-19 z" /><path
       d="M 197.35453,114.0875 H 165.09995 V 92.933222 c 0,-7.944458 5.26537,-9.796619 8.97391,-9.796619 3.7001,0 22.76174,0 22.76174,0 V 48.211365 l -31.34749,-0.122353 c -34.79868,0 -42.71781,26.048373 -42.71781,42.717812 V 114.0875 h -20.12484 v 35.98844 h 20.12484 c 0,46.18587 0,101.83505 0,101.83505 h 42.32965 c 0,0 0,-56.19766 0,-101.83505 h 28.56293 z"
       id="path1"
       style="display:inline;fill:#800000;stroke-width:4.21904" /></g><path
     style="display:none;fill:#ffffff;fill-opacity:1;stroke-width:1.04505"
     id="path2"
     width="256.82657"
     height="256.82657"
     x="21.58672"
     y="21.58672"
     inkscape:path-effect="#path-effect3"
     sodipodi:type="rect"
     d="m 40.58672,21.58672 h 218.82657 a 19,19 45 0 1 19,19 v 218.82657 a 19,19 135 0 1 -19,19 H 40.58672 a 19,19 45 0 1 -19,-19 V 40.58672 a 19,19 135 0 1 19,-19 z" /></svg>
