<?xml version="1.0" ?><!DOCTYPE svg  PUBLIC '-//W3C//DTD SVG 1.1//EN'  'http://www.w3.org/Graphics/SVG/1.1/DTD/svg11.dtd'><svg enable-background="new 0 0 65 65" height="65px" id="Layer_1" version="1.1" viewBox="0 0 65 65" width="65px" xml:space="preserve" xmlns="http://www.w3.org/2000/svg" xmlns:xlink="http://www.w3.org/1999/xlink"><path d="M47.985,11.387c-2.508-6.346-7.831-9.938-15.396-10.389c-0.027-0.001-0.052,0.003-0.079,0.003  c-0.033,0-0.066-0.006-0.1-0.004C24.847,1.447,19.523,5.04,17.016,11.385c-6.059,15.333,5.718,43,14.396,52.153  c0.013,0.014,0.028,0.022,0.041,0.035c0.006,0.006,0.008,0.016,0.015,0.021c0.012,0.011,0.027,0.015,0.039,0.024  c0.133,0.118,0.278,0.214,0.436,0.277c0.014,0.005,0.028,0.008,0.042,0.013c0.166,0.061,0.339,0.097,0.514,0.097c0,0,0,0,0.001,0h0  h0c0,0,0,0,0.001,0c0.175,0,0.348-0.036,0.514-0.097c0.014-0.005,0.028-0.008,0.042-0.013c0.158-0.063,0.305-0.159,0.438-0.278  c0.011-0.01,0.026-0.013,0.037-0.023c0.007-0.006,0.008-0.015,0.015-0.021c0.014-0.014,0.029-0.022,0.042-0.036  C42.267,54.386,54.043,26.72,47.985,11.387z M32.5,29.135c-6.025,0-10.926-4.901-10.926-10.926c0-6.024,4.901-10.926,10.926-10.926  c6.025,0,10.927,4.901,10.927,10.926C43.427,24.233,38.525,29.135,32.5,29.135z"/><path d="M32.5,10.283c-4.371,0-7.926,3.556-7.926,7.926c0,4.371,3.556,7.926,7.926,7.926c4.371,0,7.927-3.556,7.927-7.926  C40.427,13.838,36.871,10.283,32.5,10.283z"/></svg>