<?xml version="1.0" encoding="UTF-8" standalone="no"?>
<!-- Created with Inkscape (http://www.inkscape.org/) -->

<svg
   width="300"
   height="300"
   viewBox="0 0 300 300"
   version="1.1"
   id="svg1"
   xml:space="preserve"
   xmlns="http://www.w3.org/2000/svg"
   xmlns:svg="http://www.w3.org/2000/svg"><defs
     id="defs1" /><g
     id="g3"
     style="display:none"><path
       d="M 61.821291,21.590818 A 40.229884,40.229884 0 0 0 21.590823,61.821287 V 238.18066 a 40.229884,40.229884 0 0 0 40.230468,40.22852 H 238.17872 a 40.229884,40.229884 0 0 0 40.23046,-40.22852 V 61.821287 A 40.229884,40.229884 0 0 0 238.17872,21.590818 Z m 90.488289,23.111328 c 0.11405,-0.0067 0.22524,0.01367 0.33593,0.01367 0.0906,0 0.17308,-0.01512 0.26367,-0.01172 25.37512,1.51278 43.23005,13.561413 51.64258,34.847656 20.32021,51.431138 -19.17992,144.230758 -48.28906,174.925788 -0.0436,0.047 -0.0936,0.0741 -0.14062,0.12109 -0.0235,0.0201 -0.0273,0.0502 -0.0508,0.0703 -0.0369,0.0335 -0.0861,0.0446 -0.12304,0.0781 -0.44612,0.39916 -0.93877,0.72032 -1.46875,0.93164 -0.047,0.0168 -0.0936,0.0262 -0.14063,0.043 -0.55681,0.20461 -1.13761,0.32617 -1.72461,0.32617 h -0.004 -0.002 c -0.587,0 -1.1678,-0.12156 -1.72461,-0.32617 -0.047,-0.0168 -0.0936,-0.0262 -0.14062,-0.043 -0.52998,-0.21132 -1.01677,-0.53389 -1.46289,-0.92969 -0.0402,-0.0302 -0.0907,-0.0432 -0.13086,-0.0801 -0.0235,-0.0167 -0.0307,-0.0502 -0.0508,-0.0703 -0.0436,-0.0436 -0.0931,-0.0702 -0.13672,-0.11719 -29.10825,-30.70166 -68.612463,-123.50436 -48.2889,-174.935494 8.40918,-21.282891 26.26833,-33.33432 51.63673,-34.84375 z"
       style="display:inline;fill:#ffffff"
       id="path12" /><path
       d="m 152.58108,70.277529 c -14.66155,0 -26.58594,11.92775 -26.58594,26.58595 0,14.661541 11.92774,26.585931 26.58594,26.585931 14.66154,0 26.58984,-11.92774 26.58984,-26.585931 0,-14.66155 -11.9283,-26.58595 -26.58984,-26.58595 z"
       style="display:inline;fill:#ffffff;stroke-width:3.35428"
       id="path15" /></g><g
     id="g4"
     style="display:none"><path
       d="m 40.585937,21.585937 a 19,19 0 0 0 -19,19 V 259.41406 a 19,19 0 0 0 19,19 H 259.41406 a 19,19 0 0 0 19,-19 V 40.585937 a 19,19 0 0 0 -19,-19 z m 124.902343,26.503907 31.34766,0.121093 v 34.925782 h -22.76172 c -3.70854,0 -8.97461,1.852425 -8.97461,9.796875 v 21.154296 h 32.25586 l -3.69336,35.98828 h -28.5625 V 251.91016 H 122.76953 V 150.07617 h -20.125 v -35.98828 h 20.125 V 90.806641 c 0,-16.669423 7.92011,-42.716797 42.71875,-42.716797 z"
       style="display:inline;fill:#ffffff;stroke-width:1.04505"
       id="path4" /></g><path
     d="m 40.585937,21.585937 a 19,19 0 0 0 -19,19 V 259.41406 a 19,19 0 0 0 19,19 H 259.41406 a 19,19 0 0 0 19,-19 V 40.585937 a 19,19 0 0 0 -19,-19 z M 193.11719,58.912109 c 13.22825,0 25.18377,5.58824 33.57031,14.525391 10.47977,-2.06592 20.31798,-5.892004 29.20508,-11.166016 -3.43562,10.748245 -10.72124,19.757208 -20.22266,25.445313 9.30575,-1.105767 18.1751,-3.575141 26.41602,-7.238281 -6.16136,9.223832 -13.96071,17.328043 -22.94336,23.798824 0.0865,1.97492 0.12695,3.96197 0.12695,5.95508 0,60.77628 -46.25545,130.85547 -130.85351,130.85547 -25.969615,0 -50.143089,-7.60872 -70.501958,-20.66406 3.599434,0.42775 7.264011,0.64648 10.972657,0.64648 21.551095,0 41.377056,-7.35504 57.117191,-19.6914 -20.122252,-0.36859 -37.104468,-13.66927 -42.960941,-31.93946 2.807649,0.54151 5.687381,0.82813 8.654297,0.82813 4.195546,0 8.258376,-0.56472 12.117187,-1.61133 -21.041441,-4.23196 -36.894531,-22.81458 -36.894531,-45.09375 0,-0.19567 -6.94e-4,-0.39286 0.0039,-0.58398 6.202311,3.44471 13.296428,5.51664 20.832031,5.75781 -12.340914,-8.24547 -20.458984,-22.3253 -20.458984,-38.279299 0,-8.436598 2.267641,-16.335677 6.226562,-23.125 22.684167,27.826213 56.574759,46.132429 94.798829,48.052739 -0.78723,-3.37191 -1.19141,-6.88104 -1.19141,-10.48047 0,-25.400807 20.59007,-45.992191 45.98633,-45.992191 z"
     style="display:inline;fill:#ffffff;stroke-width:1.04505"
     id="path5" /></svg>
